<?xml version="1.0" encoding="UTF-8" standalone="no"?>
<!DOCTYPE svg PUBLIC "-//W3C//DTD SVG 1.1//EN" "http://www.w3.org/Graphics/SVG/1.1/DTD/svg11.dtd">

<!-- Created with Vectornator (http://vectornator.io/) -->
<svg height="100%" stroke-miterlimit="10" style="fill-rule:nonzero;clip-rule:evenodd;stroke-linecap:round;stroke-linejoin:round;" version="1.1" viewBox="0 0 282 300" width="100%" xml:space="preserve" xmlns="http://www.w3.org/2000/svg" xmlns:vectornator="http://vectornator.io" xmlns:xlink="http://www.w3.org/1999/xlink">
<metadata>
<vectornator:setting key="IsTimeLapseWatermarkDisabled" value="false"/>
<vectornator:setting key="UndoHistoryDisabled" value="true"/>
<vectornator:setting key="VNDimensionsVisible" value="true"/>
<vectornator:setting key="VNSnapToGuides" value="true"/>
<vectornator:setting key="WDCMYKEnabledKey" value="false"/>
<vectornator:setting key="WDDisplayWhiteBackground" value="false"/>
<vectornator:setting key="WDDynamicGuides" value="false"/>
<vectornator:setting key="WDGuidesVisible" value="true"/>
<vectornator:setting key="WDIsolateActiveLayer" value="false"/>
<vectornator:setting key="WDOutlineMode" value="false"/>
<vectornator:setting key="WDRulersVisible" value="true"/>
<vectornator:setting key="WDSnapToEdges" value="false"/>
<vectornator:setting key="WDSnapToGrid" value="false"/>
<vectornator:setting key="WDSnapToPoints" value="false"/>
<vectornator:setting key="WDUnits" value="Points"/>
</metadata>
<defs/>
<g id="Layer-1" vectornator:layerName="Layer 1">
<path d="M39.6905 246.771L255.043 246.771L255.043 276.74L39.6905 276.74L39.6905 246.771Z" fill="#0d0700" fill-rule="evenodd" opacity="1" stroke="none"/>
</g>
<g id="Untitled" vectornator:layerName="Untitled">
<path d="M201 128L221 150L229 152L201 128Z" fill="#14191a" fill-rule="evenodd" opacity="1" stroke="none"/>
<path d="M226 207L238 181L238 196L226 207Z" fill="#bdbab5" fill-rule="evenodd" opacity="1" stroke="none"/>
<path d="M163 144L168 149L169 170L163 144Z" fill="#3f2f15" fill-rule="evenodd" opacity="1" stroke="none"/>
<path d="M196 136L201 128L221 150L196 136Z" fill="#646d71" fill-rule="evenodd" opacity="1" stroke="none"/>
<path d="M129 40L144 66L166 84L129 40Z" fill="#291603" fill-rule="evenodd" opacity="1" stroke="none"/>
<path d="M226 246L231 276L255 274L226 246Z" fill="#1a0f02" fill-rule="evenodd" opacity="1" stroke="none"/>
<path d="M125 275L139 260L140 230L125 275Z" fill="#241404" fill-rule="evenodd" opacity="1" stroke="none"/>
<path d="M166 84L179 106L192 85L166 84Z" fill="#fe9d30" fill-rule="evenodd" opacity="1" stroke="none"/>
<path d="M44 117L51 105L66 118L44 117Z" fill="#bf6f27" fill-rule="evenodd" opacity="1" stroke="none"/>
<path d="M226 246L256 217L256 237L226 246Z" fill="#261503" fill-rule="evenodd" opacity="1" stroke="none"/>
<path d="M93 41L129 40L145 21L93 41Z" fill="#bc6e26" fill-rule="evenodd" opacity="1" stroke="none"/>
<path d="M158 274L159 249L193 273L158 274Z" fill="#b76b25" fill-rule="evenodd" opacity="1" stroke="none"/>
<path d="M51 105L82 72L84 96L51 105Z" fill="#ba6a22" fill-rule="evenodd" opacity="1" stroke="none"/>
<path d="M229 167L247 129L247 168L229 167Z" fill="#f5e6bb" fill-rule="evenodd" opacity="1" stroke="none"/>
<path d="M119 95L143 105L179 106L119 95Z" fill="#e48c29" fill-rule="evenodd" opacity="1" stroke="none"/>
<path d="M40 228L40 264L66 248L40 228Z" fill="#b06418" fill-rule="evenodd" opacity="1" stroke="none"/>
<path d="M149 40L168 42L169 74L149 40Z" fill="#975310" fill-rule="evenodd" opacity="1" stroke="none"/>
<path d="M55 194L66 165L109 208L55 194Z" fill="#a75e1d" fill-rule="evenodd" opacity="1" stroke="none"/>
<path d="M100 143L156 159L168 206L100 143Z" fill="#0b0601" fill-rule="evenodd" opacity="1" stroke="none"/>
<path d="M66 118L74 119L84 96L66 118Z" fill="#b26520" fill-rule="evenodd" opacity="1" stroke="none"/>
<path d="M109 208L125 275L140 230L109 208Z" fill="#0f0801" fill-rule="evenodd" opacity="1" stroke="none"/>
<path d="M140 230L152 227L159 249L140 230Z" fill="#bc6c24" fill-rule="evenodd" opacity="1" stroke="none"/>
<path d="M145 21L149 40L168 42L145 21Z" fill="#a05916" fill-rule="evenodd" opacity="1" stroke="none"/>
<path d="M201 128L220 119L239 128L201 128Z" fill="#fd9c1a" fill-rule="evenodd" opacity="1" stroke="none"/>
<path d="M168 206L184 180L202 207L168 206Z" fill="#000000" fill-rule="evenodd" opacity="1" stroke="none"/>
<path d="M163 119L184 119L196 136L163 119Z" fill="#ec821f" fill-rule="evenodd" opacity="1" stroke="none"/>
<path d="M27 215L40 228L66 248L27 215Z" fill="#542e04" fill-rule="evenodd" opacity="1" stroke="none"/>
<path d="M74 119L100 143L101 102L74 119Z" fill="#b9691f" fill-rule="evenodd" opacity="1" stroke="none"/>
<path d="M169 74L184 75L192 85L169 74Z" fill="#cc7918" fill-rule="evenodd" opacity="1" stroke="none"/>
<path d="M129 40L145 21L149 40L129 40Z" fill="#b96d25" fill-rule="evenodd" opacity="1" stroke="none"/>
<path d="M119 95L143 75L166 84L119 95Z" fill="#e78927" fill-rule="evenodd" opacity="1" stroke="none"/>
<path d="M238 181L238 196L246 208L238 181Z" fill="#14130e" fill-rule="evenodd" opacity="1" stroke="none"/>
<path d="M163 119L163 144L196 136L163 119Z" fill="#fc9b38" fill-rule="evenodd" opacity="1" stroke="none"/>
<path d="M167 22L185 42L203 34L167 22Z" fill="#bb691e" fill-rule="evenodd" opacity="1" stroke="none"/>
<path d="M27 215L40 228L40 264L27 215Z" fill="#050300" fill-rule="evenodd" opacity="1" stroke="none"/>
<path d="M16 125L36 185L44 117L16 125Z" fill="#9b591c" fill-rule="evenodd" opacity="1" stroke="none"/>
<path d="M166 84L169 74L192 85L166 84Z" fill="#fa9727" fill-rule="evenodd" opacity="1" stroke="none"/>
<path d="M202 207L216 180L226 207L202 207Z" fill="#f9f7f5" fill-rule="evenodd" opacity="1" stroke="none"/>
<path d="M16 125L27 215L36 185L16 125Z" fill="#3c2106" fill-rule="evenodd" opacity="1" stroke="none"/>
<path d="M84 96L101 102L111 66L84 96Z" fill="#160b01" fill-rule="evenodd" opacity="1" stroke="none"/>
<path d="M238 69L247 129L256 104L238 69Z" fill="#804407" fill-rule="evenodd" opacity="1" stroke="none"/>
<path d="M36 185L55 194L66 118L36 185Z" fill="#bd6f27" fill-rule="evenodd" opacity="1" stroke="none"/>
<path d="M202 63L203 34L212 36L202 63Z" fill="#010100" fill-rule="evenodd" opacity="1" stroke="none"/>
<path d="M246 208L256 178L256 217L246 208Z" fill="#a65a0b" fill-rule="evenodd" opacity="1" stroke="none"/>
<path d="M184 75L185 42L202 63L184 75Z" fill="#7f430b" fill-rule="evenodd" opacity="1" stroke="none"/>
<path d="M66 248L67 265L91 256L66 248Z" fill="#040200" fill-rule="evenodd" opacity="1" stroke="none"/>
<path d="M184 119L196 136L201 128L184 119Z" fill="#3b1f04" fill-rule="evenodd" opacity="1" stroke="none"/>
<path d="M179 106L192 85L206 106L179 106Z" fill="#fe9e30" fill-rule="evenodd" opacity="1" stroke="none"/>
<path d="M206 106L211 75L232 105L206 106Z" fill="#da8417" fill-rule="evenodd" opacity="1" stroke="none"/>
<path d="M229 152L239 128L247 129L229 152Z" fill="#342511" fill-rule="evenodd" opacity="1" stroke="none"/>
<path d="M201 128L206 106L220 119L201 128Z" fill="#f99827" fill-rule="evenodd" opacity="1" stroke="none"/>
<path d="M229 152L229 167L247 129L229 152Z" fill="#c8beaa" fill-rule="evenodd" opacity="1" stroke="none"/>
<path d="M167 22L192 22L203 34L167 22Z" fill="#a75c15" fill-rule="evenodd" opacity="1" stroke="none"/>
<path d="M163 144L168 149L196 136L163 144Z" fill="#fdcd6d" fill-rule="evenodd" opacity="1" stroke="none"/>
<path d="M91 256L101 262L102 237L91 256Z" fill="#110901" fill-rule="evenodd" opacity="1" stroke="none"/>
<path d="M143 105L163 119L179 106L143 105Z" fill="#1a200b" fill-rule="evenodd" opacity="1" stroke="none"/>
<path d="M206 106L232 105L238 118L206 106Z" fill="#171b0a" fill-rule="evenodd" opacity="1" stroke="none"/>
<path d="M101 102L111 66L119 95L101 102Z" fill="#000000" fill-rule="evenodd" opacity="1" stroke="none"/>
<path d="M51 105L54 94L82 72L51 105Z" fill="#73400f" fill-rule="evenodd" opacity="1" stroke="none"/>
<path d="M184 180L203 192L220 166L184 180Z" fill="#070706" fill-rule="evenodd" opacity="1" stroke="none"/>
<path d="M168 206L169 225L204 250L168 206Z" fill="#281502" fill-rule="evenodd" opacity="1" stroke="none"/>
<path d="M91 256L102 237L109 208L91 256Z" fill="#784518" fill-rule="evenodd" opacity="1" stroke="none"/>
<path d="M193 273L204 250L231 276L193 273Z" fill="#1e1002" fill-rule="evenodd" opacity="1" stroke="none"/>
<path d="M184 180L202 207L203 192L184 180Z" fill="#010100" fill-rule="evenodd" opacity="1" stroke="none"/>
<path d="M179 106L201 128L206 106L179 106Z" fill="#fb9b2d" fill-rule="evenodd" opacity="1" stroke="none"/>
<path d="M168 42L169 74L184 75L168 42Z" fill="#000000" fill-rule="evenodd" opacity="1" stroke="none"/>
<path d="M202 207L204 250L246 208L202 207Z" fill="#070300" fill-rule="evenodd" opacity="1" stroke="none"/>
<path d="M194 74L202 63L211 75L194 74Z" fill="#060400" fill-rule="evenodd" opacity="1" stroke="none"/>
<path d="M152 227L159 249L169 225L152 227Z" fill="#bc6e27" fill-rule="evenodd" opacity="1" stroke="none"/>
<path d="M168 206L169 170L184 180L168 206Z" fill="#030302" fill-rule="evenodd" opacity="1" stroke="none"/>
<path d="M111 66L119 95L144 66L111 66Z" fill="#020100" fill-rule="evenodd" opacity="1" stroke="none"/>
<path d="M55 194L91 256L109 208L55 194Z" fill="#b16522" fill-rule="evenodd" opacity="1" stroke="none"/>
<path d="M220 119L238 118L239 128L220 119Z" fill="#f5940b" fill-rule="evenodd" opacity="1" stroke="none"/>
<path d="M149 40L166 84L169 74L149 40Z" fill="#211102" fill-rule="evenodd" opacity="1" stroke="none"/>
<path d="M168 149L169 170L184 180L168 149Z" fill="#f2e59a" fill-rule="evenodd" opacity="1" stroke="none"/>
<path d="M192 22L203 34L212 36L192 22Z" fill="#211001" fill-rule="evenodd" opacity="1" stroke="none"/>
<path d="M202 63L211 75L212 36L202 63Z" fill="#0f0801" fill-rule="evenodd" opacity="1" stroke="none"/>
<path d="M211 75L231 90L232 105L211 75Z" fill="#613502" fill-rule="evenodd" opacity="1" stroke="none"/>
<path d="M55 194L66 248L91 256L55 194Z" fill="#1f1104" fill-rule="evenodd" opacity="1" stroke="none"/>
<path d="M36 185L44 117L66 118L36 185Z" fill="#bd6f28" fill-rule="evenodd" opacity="1" stroke="none"/>
<path d="M231 90L238 118L247 129L231 90Z" fill="#391f03" fill-rule="evenodd" opacity="1" stroke="none"/>
<path d="M40 264L66 248L67 265L40 264Z" fill="#7a420b" fill-rule="evenodd" opacity="1" stroke="none"/>
<path d="M229 167L238 181L247 168L229 167Z" fill="#000000" fill-rule="evenodd" opacity="1" stroke="none"/>
<path d="M125 275L139 260L159 249L125 275Z" fill="#2f1a05" fill-rule="evenodd" opacity="1" stroke="none"/>
<path d="M168 42L184 75L185 42L168 42Z" fill="#030200" fill-rule="evenodd" opacity="1" stroke="none"/>
<path d="M185 42L202 63L203 34L185 42Z" fill="#b56316" fill-rule="evenodd" opacity="1" stroke="none"/>
<path d="M168 149L184 180L196 136L168 149Z" fill="#fef2a8" fill-rule="evenodd" opacity="1" stroke="none"/>
<path d="M125 275L158 274L159 249L125 275Z" fill="#050200" fill-rule="evenodd" opacity="1" stroke="none"/>
<path d="M220 166L221 150L229 167L220 166Z" fill="#0a0a09" fill-rule="evenodd" opacity="1" stroke="none"/>
<path d="M201 128L229 152L239 128L201 128Z" fill="#050302" fill-rule="evenodd" opacity="1" stroke="none"/>
<path d="M119 95L119 123L143 105L119 95Z" fill="#fd9b2e" fill-rule="evenodd" opacity="1" stroke="none"/>
<path d="M246 208L247 168L256 178L246 208Z" fill="#844705" fill-rule="evenodd" opacity="1" stroke="none"/>
<path d="M202 207L203 192L216 180L202 207Z" fill="#d8d6d2" fill-rule="evenodd" opacity="1" stroke="none"/>
<path d="M66 118L66 165L88 159L66 118Z" fill="#040200" fill-rule="evenodd" opacity="1" stroke="none"/>
<path d="M115 194L140 230L152 227L115 194Z" fill="#1c0f03" fill-rule="evenodd" opacity="1" stroke="none"/>
<path d="M231 90L232 105L238 118L231 90Z" fill="#010100" fill-rule="evenodd" opacity="1" stroke="none"/>
<path d="M100 143L101 102L119 123L100 143Z" fill="#0e0701" fill-rule="evenodd" opacity="1" stroke="none"/>
<path d="M221 150L229 152L229 167L221 150Z" fill="#000000" fill-rule="evenodd" opacity="1" stroke="none"/>
<path d="M93 41L111 66L129 40L93 41Z" fill="#b66825" fill-rule="evenodd" opacity="1" stroke="none"/>
<path d="M74 119L84 96L101 102L74 119Z" fill="#62370d" fill-rule="evenodd" opacity="1" stroke="none"/>
<path d="M159 249L169 225L193 273L159 249Z" fill="#ba6d27" fill-rule="evenodd" opacity="1" stroke="none"/>
<path d="M119 123L143 105L163 144L119 123Z" fill="#fe9d33" fill-rule="evenodd" opacity="1" stroke="none"/>
<path d="M247 129L247 168L256 104L247 129Z" fill="#693d08" fill-rule="evenodd" opacity="1" stroke="none"/>
<path d="M101 102L119 95L119 123L101 102Z" fill="#000000" fill-rule="evenodd" opacity="1" stroke="none"/>
<path d="M119 95L143 75L144 66L119 95Z" fill="#3a1c03" fill-rule="evenodd" opacity="1" stroke="none"/>
<path d="M211 75L212 36L238 69L211 75Z" fill="#ac5f18" fill-rule="evenodd" opacity="1" stroke="none"/>
<path d="M27 215L55 194L66 248L27 215Z" fill="#070400" fill-rule="evenodd" opacity="1" stroke="none"/>
<path d="M66 118L74 119L88 159L66 118Z" fill="#301b06" fill-rule="evenodd" opacity="1" stroke="none"/>
<path d="M202 207L226 207L246 208L202 207Z" fill="#4e4e4d" fill-rule="evenodd" opacity="1" stroke="none"/>
<path d="M129 40L149 40L166 84L129 40Z" fill="#090500" fill-rule="evenodd" opacity="1" stroke="none"/>
<path d="M26 106L44 117L51 105L26 106Z" fill="#9f5407" fill-rule="evenodd" opacity="1" stroke="none"/>
<path d="M226 246L246 208L256 217L226 246Z" fill="#954d0b" fill-rule="evenodd" opacity="1" stroke="none"/>
<path d="M143 105L163 119L163 144L143 105Z" fill="#f98f2f" fill-rule="evenodd" opacity="1" stroke="none"/>
<path d="M119 95L166 84L179 106L119 95Z" fill="#fe9d31" fill-rule="evenodd" opacity="1" stroke="none"/>
<path d="M101 262L102 237L125 275L101 262Z" fill="#b46418" fill-rule="evenodd" opacity="1" stroke="none"/>
<path d="M102 237L109 208L125 275L102 237Z" fill="#8e4e13" fill-rule="evenodd" opacity="1" stroke="none"/>
<path d="M226 246L255 274L256 237L226 246Z" fill="#965413" fill-rule="evenodd" opacity="1" stroke="none"/>
<path d="M84 96L93 41L111 66L84 96Z" fill="#a75c1c" fill-rule="evenodd" opacity="1" stroke="none"/>
<path d="M216 180L226 207L238 181L216 180Z" fill="#f6f4f0" fill-rule="evenodd" opacity="1" stroke="none"/>
<path d="M156 159L163 144L169 170L156 159Z" fill="#070401" fill-rule="evenodd" opacity="1" stroke="none"/>
<path d="M100 143L109 208L115 194L100 143Z" fill="#361e07" fill-rule="evenodd" opacity="1" stroke="none"/>
<path d="M216 180L220 166L229 167L216 180Z" fill="#000000" fill-rule="evenodd" opacity="1" stroke="none"/>
<path d="M167 22L168 42L185 42L167 22Z" fill="#2e1a05" fill-rule="evenodd" opacity="1" stroke="none"/>
<path d="M168 206L202 207L204 250L168 206Z" fill="#000000" fill-rule="evenodd" opacity="1" stroke="none"/>
<path d="M179 106L184 119L201 128L179 106Z" fill="#241504" fill-rule="evenodd" opacity="1" stroke="none"/>
<path d="M196 136L220 166L221 150L196 136Z" fill="#e9e5c9" fill-rule="evenodd" opacity="1" stroke="none"/>
<path d="M206 106L220 119L238 118L206 106Z" fill="#100d06" fill-rule="evenodd" opacity="1" stroke="none"/>
<path d="M26 79L51 105L54 94L26 79Z" fill="#9b560b" fill-rule="evenodd" opacity="1" stroke="none"/>
<path d="M169 225L193 273L204 250L169 225Z" fill="#b0631c" fill-rule="evenodd" opacity="1" stroke="none"/>
<path d="M67 265L91 256L101 262L67 265Z" fill="#000000" fill-rule="evenodd" opacity="1" stroke="none"/>
<path d="M204 250L226 246L246 208L204 250Z" fill="#954d0b" fill-rule="evenodd" opacity="1" stroke="none"/>
<path d="M27 215L36 185L55 194L27 215Z" fill="#b86c25" fill-rule="evenodd" opacity="1" stroke="none"/>
<path d="M143 75L144 66L166 84L143 75Z" fill="#804910" fill-rule="evenodd" opacity="1" stroke="none"/>
<path d="M139 260L140 230L159 249L139 260Z" fill="#b16622" fill-rule="evenodd" opacity="1" stroke="none"/>
<path d="M111 66L129 40L144 66L111 66Z" fill="#95541a" fill-rule="evenodd" opacity="1" stroke="none"/>
<path d="M184 75L192 85L194 74L184 75Z" fill="#140c02" fill-rule="evenodd" opacity="1" stroke="none"/>
<path d="M145 21L167 22L168 42L145 21Z" fill="#0d0600" fill-rule="evenodd" opacity="1" stroke="none"/>
<path d="M238 181L246 208L247 168L238 181Z" fill="#030301" fill-rule="evenodd" opacity="1" stroke="none"/>
<path d="M192 85L194 74L211 75L192 85Z" fill="#f49218" fill-rule="evenodd" opacity="1" stroke="none"/>
<path d="M119 123L156 159L163 144L119 123Z" fill="#dd8024" fill-rule="evenodd" opacity="1" stroke="none"/>
<path d="M226 207L238 196L246 208L226 207Z" fill="#0c0c0b" fill-rule="evenodd" opacity="1" stroke="none"/>
<path d="M55 194L66 118L66 165L55 194Z" fill="#a25f21" fill-rule="evenodd" opacity="1" stroke="none"/>
<path d="M216 180L229 167L238 181L216 180Z" fill="#060604" fill-rule="evenodd" opacity="1" stroke="none"/>
<path d="M184 75L194 74L202 63L184 75Z" fill="#090500" fill-rule="evenodd" opacity="1" stroke="none"/>
<path d="M211 75L231 90L238 69L211 75Z" fill="#935115" fill-rule="evenodd" opacity="1" stroke="none"/>
<path d="M184 180L196 136L220 166L184 180Z" fill="#fbf0af" fill-rule="evenodd" opacity="1" stroke="none"/>
<path d="M156 159L168 206L169 170L156 159Z" fill="#010000" fill-rule="evenodd" opacity="1" stroke="none"/>
<path d="M231 90L238 69L247 129L231 90Z" fill="#c26a14" fill-rule="evenodd" opacity="1" stroke="none"/>
<path d="M74 119L88 159L100 143L74 119Z" fill="#aa601e" fill-rule="evenodd" opacity="1" stroke="none"/>
<path d="M203 192L216 180L220 166L203 192Z" fill="#1d1c1a" fill-rule="evenodd" opacity="1" stroke="none"/>
<path d="M152 227L168 206L169 225L152 227Z" fill="#b26622" fill-rule="evenodd" opacity="1" stroke="none"/>
<path d="M100 143L115 194L168 206L100 143Z" fill="#9d5619" fill-rule="evenodd" opacity="1" stroke="none"/>
<path d="M238 118L239 128L247 129L238 118Z" fill="#3e2201" fill-rule="evenodd" opacity="1" stroke="none"/>
<path d="M88 159L100 143L109 208L88 159Z" fill="#090501" fill-rule="evenodd" opacity="1" stroke="none"/>
<path d="M204 250L226 246L231 276L204 250Z" fill="#7f4308" fill-rule="evenodd" opacity="1" stroke="none"/>
<path d="M93 41L121 22L145 21L93 41Z" fill="#955419" fill-rule="evenodd" opacity="1" stroke="none"/>
<path d="M109 208L115 194L140 230L109 208Z" fill="#020100" fill-rule="evenodd" opacity="1" stroke="none"/>
<path d="M192 85L206 106L211 75L192 85Z" fill="#fe9d2b" fill-rule="evenodd" opacity="1" stroke="none"/>
<path d="M82 72L84 96L93 41L82 72Z" fill="#955217" fill-rule="evenodd" opacity="1" stroke="none"/>
<path d="M115 194L152 227L168 206L115 194Z" fill="#af6221" fill-rule="evenodd" opacity="1" stroke="none"/>
<path d="M51 105L66 118L84 96L51 105Z" fill="#bb6d27" fill-rule="evenodd" opacity="1" stroke="none"/>
<path d="M163 119L179 106L184 119L163 119Z" fill="#030300" fill-rule="evenodd" opacity="1" stroke="none"/>
<path d="M100 143L119 123L156 159L100 143Z" fill="#1a0f03" fill-rule="evenodd" opacity="1" stroke="none"/>
<path d="M66 165L88 159L109 208L66 165Z" fill="#2f1902" fill-rule="evenodd" opacity="1" stroke="none"/>
</g>
</svg>
